<?xml version="1.0" encoding="UTF-8"?>
<svg width="800" height="600" viewBox="0 0 800 600" fill="none" xmlns="http://www.w3.org/2000/svg">
  <rect width="800" height="600" fill="#F3F4F6"/>
  <rect x="50" y="50" width="700" height="400" rx="8" fill="#E5E7EB"/>
  <path d="M200 300C200 243.7 245.7 198 302 198H498C554.3 198 600 243.7 600 300V300C600 356.3 554.3 402 498 402H302C245.7 402 200 356.3 200 300V300Z" fill="#D1D5DB"/>
  <path d="M400 300C400 276.239 387.856 255.11 369.091 245.5C387.856 235.89 400 214.761 400 191C400 156.863 372.837 130 340 130C307.163 130 280 156.863 280 191C280 214.761 292.144 235.89 310.909 245.5C292.144 255.11 280 276.239 280 300C280 323.761 292.144 344.89 310.909 354.5C292.144 364.11 280 385.239 280 409C280 443.137 307.163 470 340 470C372.837 470 400 443.137 400 409C400 385.239 387.856 364.11 369.091 354.5C387.856 344.89 400 323.761 400 300Z" fill="#9CA3AF"/>
  <path d="M400 300C400 276.239 412.144 255.11 430.909 245.5C412.144 235.89 400 214.761 400 191C400 156.863 427.163 130 460 130C492.837 130 520 156.863 520 191C520 214.761 507.856 235.89 489.091 245.5C507.856 255.11 520 276.239 520 300C520 323.761 507.856 344.89 489.091 354.5C507.856 364.11 520 385.239 520 409C520 443.137 492.837 470 460 470C427.163 470 400 443.137 400 409C400 385.239 412.144 364.11 430.909 354.5C412.144 344.89 400 323.761 400 300Z" fill="#6B7280"/>
  <path d="M200 300C200 276.239 187.856 255.109 169.091 245.5C187.856 235.891 200 214.761 200 191C200 156.863 227.163 130 260 130C292.837 130 320 156.863 320 191C320 214.761 307.856 235.891 289.091 245.5C307.856 255.109 320 276.239 320 300C320 323.761 307.856 344.891 289.091 354.5C307.856 364.109 320 385.239 320 409C320 443.137 292.837 470 260 470C227.163 470 200 443.137 200 409C200 385.239 212.144 364.109 230.909 354.5C212.144 344.891 200 323.761 200 300Z" fill="#4B5563"/>
  <text x="400" y="520" font-family="Arial, sans-serif" font-size="24" text-anchor="middle" fill="#6B7280">Project Preview</text>
</svg>
